<svg version="1.1" id="Layer_1" xmlns="http://www.w3.org/2000/svg" xmlns:xlink="http://www.w3.org/1999/xlink" x="0px" y="0px"
	 width="100%" viewBox="0 0 1024 1024" enable-background="new 0 0 1024 1024" xml:space="preserve">
<defs>
    <!-- تدرج لوني زجاجي (Glossy) -->
    <linearGradient id="logoGradient" x1="0%" y1="0%" x2="100%" y2="100%" gradientUnits="userSpaceOnUse">
        <stop offset="0%" style="stop-color:#ff9800;stop-opacity:1" />
        <stop offset="40%" style="stop-color:#ffc107;stop-opacity:1" /> <!-- لمعة ذهبية في المنتصف -->
        <stop offset="60%" style="stop-color:#00d4ff;stop-opacity:1" />
        <stop offset="100%" style="stop-color:#0056b3;stop-opacity:1" />
    </linearGradient>
    <!-- فلتر لإعطاء عمق وتوهج (3D Glass Effect) -->
    <filter id="glassGlow" x="-20%" y="-20%" width="140%" height="140%">
        <feDropShadow dx="0" dy="4" stdDeviation="6" flood-color="rgba(0,0,0,0.3)" />
        <feGaussianBlur in="SourceAlpha" stdDeviation="2" result="blur" />
        <feSpecularLighting in="blur" surfaceScale="5" specularConstant="1" specularExponent="20" lighting-color="#ffffff" result="specOut">
            <fePointLight x="-5000" y="-10000" z="20000" />
        </feSpecularLighting>
        <feComposite in="specOut" in2="SourceAlpha" operator="in" result="specOut" />
        <feComposite in="SourceGraphic" in2="specOut" operator="arithmetic" k1="0" k2="1" k3="1" k4="0" result="litPaint" />
        <feMerge>
            <feMergeNode in="litPaint" />
        </feMerge>
    </filter>
</defs>
<path fill="url(#logoGradient)" filter="url(#glassGlow)" opacity="1.000000" stroke="none" 
	d="
M636.126465,625.945190 
	C618.554993,612.739075 605.825745,596.563660 600.583069,575.177063 
	C596.253784,557.516357 583.110779,552.416626 568.551880,552.755798 
	C562.723328,552.891602 556.885071,552.991577 551.060120,552.815125 
	C543.707520,552.592468 539.343750,547.768616 539.615906,540.555847 
	C539.866211,533.918701 543.701172,530.668213 551.262817,530.669495 
	C557.761902,530.670593 564.261047,530.680237 570.760071,530.652100 
	C600.989197,530.520996 615.475952,546.412354 621.956665,569.827759 
	C628.204224,592.400330 643.314941,607.220581 664.365845,615.816772 
	C683.879822,623.785400 704.074951,625.206726 724.206726,617.414062 
	C746.472656,608.795410 761.595581,593.484924 767.315308,569.909729 
	C774.322632,541.027527 759.327271,512.017212 732.933899,500.910828 
	C722.724426,496.614685 712.260132,495.061981 701.321167,494.934174 
	C687.524475,494.772980 673.795227,494.610413 660.391602,489.942261 
	C620.394470,476.012299 600.118652,432.558624 619.489197,394.724731 
	C629.917908,374.355804 646.681152,361.723083 667.924133,354.959717 
	C697.786865,345.451965 725.841553,349.704773 751.170288,368.473236 
	C765.691040,379.233093 775.281921,393.658783 779.909241,411.179108 
	C782.042114,419.254730 778.548645,425.195099 771.450134,426.455963 
	C765.345642,427.540283 760.709595,424.678802 759.028259,418.419830 
	C751.984680,392.199402 733.477600,378.173767 708.163147,373.565918 
	C682.760010,368.942017 660.466248,376.675171 644.078735,397.283051 
	C627.807800,417.744354 632.091980,444.905365 652.932800,460.873535 
	C664.531006,469.760132 677.810547,472.525696 691.858337,472.584747 
	C706.050720,472.644440 720.060608,473.058136 733.845459,477.295990 
	C772.478088,489.172699 796.688843,529.727905 789.975830,569.580261 
	C782.439758,614.318420 745.007751,640.587097 707.487427,644.325195 
	C681.618164,646.902588 657.995789,640.480225 636.126465,625.945190 
z"/>
<path fill="url(#logoGradient)" filter="url(#glassGlow)" opacity="1.000000" stroke="none" 
	d="
M638.179504,586.771362 
	C629.589600,575.769897 626.364990,562.616028 620.979675,550.493469 
	C617.740479,543.201721 614.822937,535.758423 612.014648,528.287781 
	C610.630005,524.604370 608.394165,523.274536 604.480103,523.297974 
	C581.320923,523.436768 558.160461,523.351929 535.000488,523.391113 
	C530.807800,523.398193 527.032471,522.795532 524.731628,518.691589 
	C521.030151,512.089355 526.815857,502.343231 535.066650,501.804504 
	C541.036438,501.414734 547.046143,501.532745 553.036621,501.585785 
	C567.187378,501.710999 581.329102,500.686615 595.489258,501.420563 
	C599.916626,501.649994 600.652771,500.097656 598.676208,495.223297 
	C591.921936,478.566040 585.081970,461.943481 578.264221,445.311951 
	C571.071716,427.766052 563.871216,410.223389 556.661499,392.684540 
	C555.984497,391.037567 555.695740,389.131195 553.047058,387.642029 
	C536.270020,428.954529 519.557495,470.108154 502.946655,511.011505 
	C500.389893,511.088318 500.187592,509.514435 499.714966,508.392151 
	C496.872223,501.642029 494.137177,494.846588 491.302856,488.092865 
	C490.165680,485.383179 490.837189,482.876770 491.857819,480.362640 
	C502.189148,454.913574 512.563416,429.481842 522.837891,404.009888 
	C528.255310,390.579346 533.578064,377.109344 538.793335,363.599152 
	C542.086731,355.067596 545.972351,351.760712 553.484009,351.694824 
	C560.197144,351.635986 564.534668,354.352692 567.112427,360.620911 
	C579.202820,390.021027 591.219727,419.451294 603.278015,448.864624 
	C609.588928,464.258698 616.095642,479.575623 622.159729,495.066010 
	C624.004395,499.777985 626.740479,501.095673 631.571472,501.033997 
	C656.893250,500.710632 682.218994,500.708130 707.543396,500.587952 
	C717.527222,500.540558 723.563110,508.029785 720.191345,516.431396 
	C718.233765,521.309326 714.482849,523.409424 709.197998,523.390015 
	C686.872742,523.307922 664.546936,523.385254 642.221436,523.350586 
	C634.657104,523.338806 634.129395,523.818054 636.942566,530.906006 
	C641.669800,542.816284 646.229004,554.824829 651.660095,566.416687 
	C659.728210,583.637146 673.969604,592.315308 692.746460,593.652954 
	C700.118347,594.178101 704.514771,597.129456 705.286438,602.687988 
	C706.414734,610.815308 702.144897,616.063721 693.726562,615.745117 
	C680.872437,615.258667 668.788330,611.603210 657.799561,604.823303 
	C650.230652,600.153442 643.536865,594.430054 638.179504,586.771362 
z"/>
<path fill="url(#logoGradient)" opacity="1.000000" stroke="none" 
	d="
M319.004456,397.994690 
	C294.866364,414.985382 277.732147,437.005829 267.450745,464.279144 
	C263.742828,474.115051 261.338501,484.295135 260.288910,494.803040 
	C259.839966,499.297760 261.108673,501.042542 265.910278,501.008850 
	C292.731171,500.820526 319.554016,500.923615 346.376099,500.882538 
	C353.346802,500.871857 353.779480,501.158875 352.133362,507.806244 
	C351.332123,511.041870 351.676117,514.020874 352.455292,517.119873 
	C353.999481,523.261597 353.896912,523.377319 347.731842,523.374756 
	C327.906097,523.366577 308.080322,523.334290 288.254578,523.322693 
	C281.257507,523.318604 274.260437,523.367493 267.263397,523.355103 
	C260.262329,523.342773 259.546844,524.089966 260.475861,531.196350 
	C262.504059,546.711304 267.321198,561.321167 274.714600,575.114441 
	C291.135834,605.750183 315.803955,627.118408 347.915222,639.946228 
	C356.546997,643.394531 365.628754,645.640320 374.912537,646.694763 
	C378.904236,647.148193 381.146271,648.152710 379.586578,652.929138 
	C378.357483,656.693176 377.861755,660.719788 377.277710,664.664978 
	C376.664856,668.805054 374.522827,669.597595 370.615143,668.908997 
	C323.709564,660.643372 287.046326,636.647827 261.908875,596.307556 
	C235.226440,553.487915 230.356262,507.459808 246.245010,459.679779 
	C259.518127,419.765320 285.790344,390.270630 322.587952,370.409943 
	C339.991150,361.016998 358.774689,355.302185 378.819519,354.534088 
	C384.621460,354.311768 390.369324,353.125977 396.213226,354.348480 
	C400.423950,355.229370 402.989319,357.693298 404.259125,361.645325 
	C405.661499,366.009857 404.676849,369.920776 401.540710,373.178680 
	C398.771698,376.055237 395.096649,376.426605 391.353485,376.261414 
	C370.325836,375.333374 350.853241,381.004578 332.279724,390.309937 
	C327.822723,392.542877 323.619476,395.282257 319.004456,397.994690 
z"/>
<path fill="url(#logoGradient)" filter="url(#glassGlow)" opacity="1.000000" stroke="none" 
	d="
M468.799500,507.117554 
	C462.247009,492.767059 455.865021,478.751587 449.173737,464.056885 
	C444.338348,468.923828 443.156464,474.592041 440.913147,479.573914 
	C424.037140,517.051819 407.408875,554.641174 390.587067,592.143616 
	C388.675964,596.404175 387.910004,600.460022 388.713623,605.159607 
	C390.235992,614.062561 384.017181,622.414246 374.733459,624.727844 
	C366.457367,626.790283 357.529144,621.830261 354.414825,613.439941 
	C351.053833,604.385071 354.083374,594.947693 362.440765,591.453491 
	C367.608124,589.293030 370.210968,585.760681 372.206421,581.026245 
	C383.905334,553.268982 396.254211,525.797729 408.616974,498.331146 
	C418.107605,477.245636 427.330811,456.039764 436.670776,434.886444 
	C439.415619,428.669952 442.773865,426.405212 448.883118,426.648865 
	C453.816986,426.845612 457.438995,428.997620 459.519379,433.598511 
	C469.939606,456.643829 480.396667,479.672546 490.810394,502.720825 
	C501.085083,525.461487 511.329285,548.215942 521.570190,570.971802 
	C522.867676,573.854675 524.151367,576.749390 525.288940,579.697510 
	C527.359619,585.063965 529.928528,589.442505 535.903320,591.925354 
	C543.712463,595.170593 547.080811,604.670593 544.434631,612.560730 
	C541.608276,620.988159 533.159790,626.416870 525.101624,624.983521 
	C515.879761,623.343262 508.840088,616.230469 509.875763,607.487183 
	C511.125153,596.940308 505.769470,588.898560 501.884064,580.221191 
	C491.004578,555.923889 479.953400,531.703369 468.799500,507.117554 
z"/>
<path fill="url(#logoGradient)" filter="url(#glassGlow)" opacity="1.000000" stroke="none" 
	d="
M463.000061,649.691040 
	C568.970337,649.682190 674.440613,649.673889 779.910828,649.665222 
	C787.474121,649.664612 792.064392,653.811401 791.962402,660.555725 
	C791.863098,667.121887 787.192505,671.268494 779.619995,671.271423 
	C680.148071,671.309448 580.676086,671.325684 481.204163,671.336914 
	C452.379028,671.340210 423.553589,671.244446 394.729034,671.367554 
	C390.465454,671.385742 388.451843,670.567932 389.553650,665.769775 
	C390.327667,662.399048 390.656586,658.846191 390.598480,655.384521 
	C390.525848,651.058777 392.186676,649.599854 396.519684,649.631287 
	C418.512146,649.791077 440.506409,649.696716 463.000061,649.691040 
z"/>
<path fill="url(#logoGradient)" filter="url(#glassGlow)" opacity="1.000000" stroke="none" 
	d="
M481.205994,551.208740 
	C478.808472,561.329468 474.073151,570.153870 470.407471,579.393250 
	C465.750000,591.132446 460.819489,602.763977 456.232758,614.530029 
	C454.893921,617.964417 453.063080,619.567688 449.244568,619.382141 
	C443.677917,619.111633 438.088348,619.312683 431.239807,619.312683 
	C444.035706,587.308472 456.289185,556.660889 469.108643,524.597778 
	C474.246826,534.050781 477.506439,542.521545 481.205994,551.208740 
z"/>
<path fill="url(#logoGradient)" filter="url(#glassGlow)" opacity="1.000000" stroke="none" 
	d="
M359.375916,506.953552 
	C361.726440,497.884155 373.405457,493.228088 381.969574,497.342072 
	C390.167816,501.280243 393.725464,511.479950 389.686218,520.299133 
	C386.996979,526.170715 379.258057,529.996216 372.635437,528.727722 
	C364.651489,527.198486 359.116516,520.909607 358.751587,512.765198 
	C358.671051,510.967346 359.061707,509.148376 359.375916,506.953552 
z"/>
<path fill="url(#logoGradient)" filter="url(#glassGlow)" opacity="1.000000" stroke="none" 
	d="
M309.710205,719.002075 
	C309.719513,714.351440 309.798035,710.198853 309.714600,706.049622 
	C309.659149,703.291321 310.967102,702.067566 313.602905,702.095581 
	C317.749298,702.139587 321.934906,701.880127 326.033966,702.354126 
	C338.218231,703.762756 345.229645,712.362122 344.161072,724.173706 
	C343.147858,735.373474 334.977081,742.141907 322.886444,741.773193 
	C321.727264,741.737854 320.574066,741.534241 319.414703,741.472595 
	C309.733124,740.957764 309.733765,740.962280 309.726593,731.456909 
	C309.723602,727.471802 309.716034,723.486633 309.710205,719.002075 
M324.164093,709.323303 
	C317.372589,709.337708 317.365082,709.337708 317.350311,716.286804 
	C317.340088,721.108215 317.413147,725.930603 317.334106,730.750671 
	C317.289612,733.464172 318.400757,734.528015 321.166168,734.688721 
	C329.023865,735.145386 334.723541,731.412415 335.671753,724.876770 
	C336.935760,716.164490 333.649170,711.390503 324.164093,709.323303 
z"/>
<path fill="url(#logoGradient)" filter="url(#glassGlow)" opacity="1.000000" stroke="none" 
	d="
M440.076660,713.734009 
	C442.525208,712.183655 444.931488,711.250244 447.348541,712.606628 
	C449.780731,713.971741 448.423981,716.507446 448.432190,718.546143 
	C448.461578,725.856018 448.478241,733.167542 448.350220,740.475830 
	C448.256104,745.848389 446.271240,750.340759 441.015228,752.474609 
	C435.151978,754.854858 429.287140,754.422729 423.732300,751.315613 
	C422.329803,750.531067 421.511505,749.282471 422.442841,747.554382 
	C423.334656,745.899475 424.551666,744.995483 426.508728,745.710327 
	C428.069550,746.280457 429.588043,747.040527 431.196167,747.393250 
	C436.215027,748.494141 439.800812,745.821899 440.533630,740.024170 
	C432.839722,742.669678 425.541779,743.518005 421.678162,734.439941 
	C418.796570,727.669189 420.398132,718.345947 424.883209,714.381409 
	C428.772827,710.943176 434.033264,710.702698 440.076660,713.734009 
M431.101318,719.644165 
	C428.048035,722.465271 427.825531,726.111572 428.485046,729.801270 
	C429.287170,734.288635 434.452515,736.432312 438.187195,734.035645 
	C440.836395,732.335632 442.208466,726.137329 440.296234,722.576172 
	C438.502808,719.236267 435.791443,717.170349 431.101318,719.644165 
z"/>
<path fill="url(#logoGradient)" filter="url(#glassGlow)" opacity="1.000000" stroke="none" 
	d="
M592.094971,743.323914 
	C589.915833,754.715088 576.304443,756.019287 568.299988,751.887451 
	C566.596985,751.008362 565.174927,749.789795 566.443176,747.519409 
	C567.512878,745.604309 568.944763,745.019409 571.008911,746.007568 
	C573.117188,747.016907 575.293396,747.817505 577.715271,747.656616 
	C582.119690,747.363770 584.205994,744.995300 584.170776,740.129578 
	C583.708191,740.129578 583.203613,740.007019 582.788208,740.147766 
	C574.835144,742.842957 569.594238,741.647827 566.477051,736.393250 
	C562.573608,729.812988 563.619995,719.036377 568.663513,714.533691 
	C570.848511,712.582886 573.426147,711.655090 576.421875,711.628662 
	C580.591553,711.591858 584.510986,713.759888 588.950562,712.268494 
	C591.495850,711.413452 592.420044,713.890259 592.383118,716.427856 
	C592.254883,725.250122 592.238403,734.074036 592.094971,743.323914 
M573.024048,721.839233 
	C571.814331,724.355469 571.991028,727.031555 572.369812,729.642395 
	C573.037964,734.247803 577.722839,736.412476 581.768005,734.127319 
	C585.151184,732.216064 584.795288,728.956787 584.829712,725.805054 
	C584.866394,722.444519 583.383667,720.039917 580.305298,718.793823 
	C577.414307,717.623657 575.175720,718.846619 573.024048,721.839233 
z"/>
<path fill="url(#logoGradient)" filter="url(#glassGlow)" opacity="1.000000" stroke="none" 
	d="
M658.259399,742.260376 
	C647.108459,739.873108 642.102844,730.998291 645.777161,720.881470 
	C648.278320,713.994812 654.671936,710.442749 662.072876,711.828003 
	C668.563293,713.042908 673.320984,719.540588 672.984680,726.547913 
	C672.861816,729.105408 671.329651,729.446228 669.293823,729.433228 
	C664.176636,729.400696 659.059082,729.422546 653.942810,729.422546 
	C653.996277,733.862793 656.186279,735.919495 660.388184,735.628174 
	C661.999146,735.516479 663.704773,735.069153 665.126526,734.318726 
	C667.415527,733.110535 668.942871,733.744080 670.130066,735.742859 
	C671.721985,738.422974 669.392761,739.236755 667.786438,740.234497 
	C665.013977,741.956421 661.909302,742.423035 658.259399,742.260376 
M660.219299,723.717041 
	C661.631104,723.538086 663.265625,724.143860 664.431458,722.367615 
	C663.687683,719.127319 661.378174,717.927429 658.243103,718.349976 
	C655.646912,718.699890 653.712280,720.018921 653.809143,723.719482 
	C655.823608,723.719482 657.611511,723.719482 660.219299,723.717041 
z"/>
<path fill="url(#logoGradient)" filter="url(#glassGlow)" opacity="1.000000" stroke="none" 
	d="
M500.185730,723.673462 
	C502.767853,714.803711 507.044373,711.379517 514.788818,711.684143 
	C522.976379,712.006226 528.738525,718.734314 527.859497,726.852417 
	C527.544800,729.758362 525.477234,729.665222 523.452515,729.589783 
	C518.533813,729.406738 513.617615,729.134460 508.462982,729.779053 
	C509.115631,734.902039 512.233276,735.835876 515.993530,735.590088 
	C517.439758,735.495483 518.960693,734.971680 520.241821,734.268677 
	C522.538635,733.008423 524.138794,733.788696 525.284851,735.730530 
	C526.845032,738.373962 524.497375,739.381836 522.866882,740.234070 
	C517.098328,743.248962 511.137909,743.212708 505.795776,739.552490 
	C500.468567,735.902466 499.146759,730.282898 500.185730,723.673462 
M512.908081,718.297546 
	C510.499969,718.900879 508.928680,720.230835 508.572571,723.092468 
	C512.351562,724.005615 515.785034,724.177551 519.499207,722.989136 
	C518.960144,719.300842 516.833618,718.122742 512.908081,718.297546 
z"/>
<path fill="url(#logoGradient)" filter="url(#glassGlow)" opacity="1.000000" stroke="none" 
	d="
M676.874695,721.348022 
	C680.848328,712.507263 688.518433,709.296021 696.468384,712.797363 
	C701.387634,714.963867 704.925476,721.673279 704.025818,726.816284 
	C703.576111,729.387024 701.754333,729.317749 699.910522,729.326965 
	C694.959961,729.351807 690.009216,729.335388 685.057251,729.335388 
	C685.152466,734.619934 688.553101,736.711609 693.927856,735.242737 
	C696.752869,734.470703 700.516724,731.703125 701.509888,736.521790 
	C702.254089,740.132874 698.080139,740.666260 695.289490,741.490173 
	C683.035400,745.107971 672.765869,734.692871 676.874695,721.348022 
M685.402344,720.644226 
	C684.380432,722.332153 684.520264,723.552124 686.789795,723.642700 
	C688.946167,723.728821 691.109924,723.689941 693.268555,723.634583 
	C694.291626,723.608398 695.294006,723.341858 695.509583,722.110107 
	C695.700745,721.017151 695.169983,720.099609 694.358154,719.505188 
	C691.395569,717.335999 688.528625,717.467102 685.402344,720.644226 
z"/>
<path fill="url(#logoGradient)" filter="url(#glassGlow)" opacity="1.000000" stroke="none" 
	d="
M613.799683,734.846558 
	C613.790771,728.368835 613.687378,722.367188 613.808472,716.369995 
	C613.882080,712.725586 616.731812,710.582092 619.755981,712.388062 
	C622.254028,713.879822 623.824036,713.097229 625.993896,712.328491 
	C632.519470,710.016663 638.226379,713.147705 639.586548,719.822571 
	C640.861267,726.078430 640.091980,732.438721 640.026978,738.754333 
	C640.003113,741.073792 638.424744,741.845276 636.323608,741.868225 
	C634.268677,741.890747 632.604736,741.315308 632.487915,738.936768 
	C632.267456,734.447693 632.155334,729.953369 632.005249,725.460938 
	C631.894409,722.144714 631.566040,718.486938 627.276123,718.673340 
	C623.330322,718.844666 621.824219,722.061890 621.781860,725.785889 
	C621.725220,730.767822 621.767822,735.750916 621.767822,740.560486 
	C614.783508,742.386292 613.918823,741.749634 613.799683,734.846558 
z"/>
<path fill="url(#logoGradient)" filter="url(#glassGlow)" opacity="1.000000" stroke="none" 
	d="
M351.581604,716.716492 
	C356.065338,711.652710 361.326935,710.636902 367.226776,712.463318 
	C372.893066,714.217529 375.055267,718.711060 376.001465,724.106628 
	C376.612793,727.592468 375.659515,729.539795 371.692749,729.416443 
	C366.775238,729.263489 361.849335,729.379822 356.833405,729.379822 
	C357.628967,734.458069 360.343506,736.371338 364.873718,735.548950 
	C366.324310,735.285645 367.765015,734.742920 369.095764,734.093506 
	C371.441071,732.949036 372.534760,734.502686 373.498077,736.062500 
	C374.603668,737.852783 373.058502,738.843811 371.934052,739.731018 
	C363.957245,746.025024 350.282318,740.867065 348.795898,730.866150 
	C348.084290,726.078369 348.111603,721.193665 351.581604,716.716492 
M367.499908,721.779480 
	C366.646790,718.497498 364.200256,717.838806 361.357819,718.368286 
	C358.858276,718.833862 356.810699,720.033752 356.876740,723.454895 
	C360.599182,723.406921 364.142914,725.034912 367.499908,721.779480 
z"/>
<path fill="url(#logoGradient)" filter="url(#glassGlow)" opacity="1.000000" stroke="none" 
	d="
M557.335449,715.941040 
	C560.541626,723.679871 558.872314,731.412109 559.104797,738.995789 
	C559.199707,742.095825 556.502197,741.265198 554.631470,741.426453 
	C552.408508,741.617981 551.084106,740.768555 551.069092,738.405090 
	C551.040588,733.911865 551.031494,729.418579 551.027954,724.925293 
	C551.025574,721.902649 550.554749,718.963196 546.920532,718.550476 
	C542.913513,718.095520 541.093811,721.040039 540.687378,724.309875 
	C540.157227,728.575684 540.321655,732.940979 540.372864,737.261230 
	C540.405640,740.026917 539.791809,741.584900 536.507019,741.568787 
	C533.232483,741.552795 532.639099,740.000671 532.680481,737.236267 
	C532.782776,730.414185 532.655212,723.588806 532.740051,716.766235 
	C532.794067,712.414612 535.398193,710.487183 539.126404,712.546204 
	C541.111511,713.642639 542.311707,713.302307 544.027466,712.668701 
	C548.982544,710.839172 553.505066,711.285156 557.335449,715.941040 
z"/>
<path fill="url(#logoGradient)" filter="url(#glassGlow)" opacity="1.000000" stroke="none" 
	d="
M455.652405,726.994995 
	C455.658264,723.000122 455.730743,719.500732 455.653961,716.004578 
	C455.558960,711.677673 458.559143,711.001343 461.265350,712.336243 
	C463.719543,713.546753 465.317871,713.136841 467.556793,712.345093 
	C475.051666,709.694702 481.004852,713.807556 481.286774,721.782959 
	C481.474976,727.106567 481.293427,732.442383 481.340149,737.772278 
	C481.359863,740.023987 481.050110,741.695801 478.124207,741.555176 
	C475.461365,741.427307 473.625244,740.898132 473.716614,737.640259 
	C473.842651,733.147095 473.708588,728.646729 473.694641,724.149475 
	C473.685211,721.113464 472.494873,718.701355 469.275055,718.554260 
	C465.813171,718.395935 463.581573,720.447693 463.376770,723.982422 
	C463.155548,727.801086 463.306580,731.640808 463.276886,735.471252 
	C463.227570,741.831177 462.946320,742.041382 455.652832,740.721985 
	C455.652832,736.393494 455.652832,731.942688 455.652405,726.994995 
z"/>
<path fill="url(#logoGradient)" filter="url(#glassGlow)" opacity="1.000000" stroke="none" 
	d="
M380.235687,739.035034 
	C379.705658,734.391785 381.558258,732.694397 385.125153,734.316895 
	C387.146606,735.236511 389.102173,735.963257 391.331512,735.724854 
	C392.724945,735.575867 394.066681,735.145691 394.383575,733.627319 
	C394.731445,731.960449 393.348022,731.265808 392.129791,730.784607 
	C389.816162,729.870605 387.373505,729.271851 385.089874,728.295471 
	C379.480042,725.896973 378.035736,719.879089 381.838501,715.169983 
	C385.092651,711.140198 395.947998,710.383728 399.818451,713.858643 
	C400.958801,714.882568 401.415741,715.923096 400.699341,717.345398 
	C400.033325,718.667725 398.995880,719.462036 397.498047,719.146301 
	C395.715240,718.770508 393.986938,718.141846 392.209778,717.732300 
	C390.192566,717.267517 388.294617,717.891357 387.705750,719.842468 
	C387.057312,721.990906 389.180115,722.553467 390.680054,723.109741 
	C392.538879,723.799316 394.509430,724.180786 396.398560,724.796997 
	C400.119354,726.010864 402.267944,728.542236 402.259186,732.529480 
	C402.250305,736.560730 400.404175,739.626831 396.608185,741.117737 
	C390.970581,743.332092 385.546173,742.712402 380.235687,739.035034 
z"/>
<path fill="url(#logoGradient)" filter="url(#glassGlow)" opacity="1.000000" stroke="none" 
	d="
M723.961548,711.827393 
	C726.923401,714.518555 727.740967,717.290405 723.409363,718.472534 
	C718.253723,719.879517 716.560120,723.287292 716.396179,728.022949 
	C716.286804,731.182983 716.273865,734.350830 716.354919,737.511658 
	C716.424683,740.232117 715.313843,741.406799 712.520996,741.402405 
	C709.690796,741.397888 708.695801,740.105957 708.715942,737.447510 
	C708.770081,730.288879 708.789307,723.128967 708.706482,715.970947 
	C708.669678,712.791504 711.140930,710.945251 713.000916,712.259583 
	C717.047424,715.118958 720.090088,711.878662 723.961548,711.827393 
z"/>
<path fill="url(#logoGradient)" filter="url(#glassGlow)" opacity="1.000000" stroke="none" 
	d="
M407.522858,737.644592 
	C407.549469,730.303650 407.627258,723.307373 407.607239,716.311340 
	C407.600128,713.826538 408.167328,712.063660 411.111969,711.999695 
	C414.052368,711.935791 415.333374,713.237000 415.295746,716.206421 
	C415.204926,723.369568 415.219696,730.534668 415.260345,737.698547 
	C415.273621,740.041199 414.700043,741.517456 411.921356,741.465027 
	C409.438629,741.417969 407.030060,741.648865 407.522858,737.644592 
z"/>
<path fill="url(#logoGradient)" filter="url(#glassGlow)" opacity="1.000000" stroke="none" 
	d="
M607.300293,736.681335 
	C607.801758,743.502014 603.571838,741.316162 599.737915,741.127930 
	C599.737915,732.235413 599.683899,723.477600 599.772095,714.721252 
	C599.797302,712.223022 601.777649,712.014832 603.721680,712.034851 
	C606.186829,712.060181 607.308777,713.295471 607.296204,715.770203 
	C607.261597,722.588440 607.296692,729.406921 607.300293,736.681335 
z"/>
<path fill="url(#logoGradient)" filter="url(#glassGlow)" opacity="1.000000" stroke="none" 
	d="
M604.523132,708.786987 
	C601.588989,708.966492 599.504578,708.252197 598.988525,705.396301 
	C598.642883,703.483337 599.012024,701.703979 600.938843,700.733398 
	C603.046753,699.671631 605.492920,699.427490 606.685181,701.634155 
	C608.047424,704.155762 608.533691,707.115906 604.523132,708.786987 
z"/>
<path fill="url(#logoGradient)" filter="url(#glassGlow)" opacity="1.000000" stroke="none" 
	d="
M409.548035,708.401733 
	C406.425995,706.721130 406.258057,704.445374 407.682709,702.000061 
	C408.958405,699.810242 411.060974,699.515198 413.274414,700.420715 
	C415.863708,701.480042 415.663422,703.870972 415.277161,705.911804 
	C414.716217,708.875671 412.411072,709.091614 409.548035,708.401733 
z"/>
</svg>